<?xml version="1.0" encoding="utf-8" ?><svg xmlns="http://www.w3.org/2000/svg" xmlns:xlink="http://www.w3.org/1999/xlink" width="1024" height="1024" viewBox="0 0 1024 1024"><path fill="#FAEDC3" d="M130.242 421.646C154.971 373.691 206.017 337.254 260.767 335.21C272.301 334.78 284.044 335.021 295.606 335.03L356.608 335.042L544.37 335.021L680.568 335.029L721.516 335.022C734.031 335.012 746.177 334.763 758.707 336.09C828.082 343.518 884.592 392.37 905.498 458.36C935.731 553.788 879.441 654.643 784.743 683.308C759.61 690.915 742.215 690.042 716.424 689.997L658.855 689.901L482.973 689.945L340.725 689.995L297.082 690.015C259.328 690.015 232.492 689.473 198.219 670.768C166.721 653.578 143.423 631.573 127.608 598.951C120.687 587.497 114.498 567.669 112.68 554.43C108.969 534.419 110.239 512.726 110.516 492.438C110.674 480.866 112.901 470.102 115.894 458.972C116.629 457.289 117.347 454.795 117.947 452.993C121.522 442.265 125.5 431.921 130.242 421.646Z"/><path fill="#FACB4F" d="M112.68 554.43L410.204 554.356L504.929 554.367C522.702 554.371 540.692 554.093 558.416 555.02C565.395 555.616 572.12 556.653 577.212 561.825C586.553 571.313 583.327 590.083 574.015 598.182C552.597 616.809 511.46 614.566 487.943 601.327C471.492 592.067 470.793 593.755 451.984 594.098C451.856 599.715 451.513 606.201 452.761 611.629C458.42 616.587 469.513 620.059 476.512 624.063C485.265 629.07 479.486 635.493 476.063 634.754C467.36 632.876 456.008 627.61 447.527 624.071C447.376 629.799 447.735 647.917 439.711 647.442C433.183 647.055 433.456 628.621 433.474 624.477C427.167 626.869 407.885 635.798 402.727 634.93C398.703 632.457 397.962 630.012 401.664 626.615C409.889 619.071 422.735 619.594 429.332 609.992C429.559 606.417 429.859 602.663 430.012 599.102C408.286 597.942 387.015 598.494 365.287 598.632L303.497 598.513C303.5 604.02 303.612 607.02 304.13 612.531C313.617 617.239 325.812 620.991 333.12 628.423C332.273 630.426 331.867 631.923 330.271 633.375C325.131 635.452 304.844 626.043 298.518 623.633C298.559 630.142 299.325 642.459 294.77 647.351C293.735 647.737 292.841 648.232 291.747 647.506C290.063 646.389 288.084 645.413 287.683 643.375C286.499 637.35 286.903 630.575 286.488 624.428C278.63 627.803 270.888 631.855 262.568 633.902C260.125 634.503 257.136 634.991 254.739 634.125C252.3 633.31 251.867 629.913 253.173 627.959C258.764 622.973 266.842 620.939 273.377 617.379C277.456 615.196 279.771 613.925 283.313 611.69C283.394 607.377 283.501 603.039 283.527 598.727C267.773 598.426 130.188 597.912 127.608 598.951C120.687 587.497 114.498 567.669 112.68 554.43Z"/><path fill="#FAEDC3" d="M550.436 565.774C554.093 564.997 557.687 567.332 558.464 570.989C559.241 574.646 556.906 578.241 553.249 579.017C549.592 579.794 545.998 577.459 545.221 573.803C544.444 570.146 546.779 566.551 550.436 565.774Z"/><path fill="#FAEDC3" d="M513.161 566.27C515.413 565.476 517.919 565.957 519.717 567.528C521.516 569.099 522.328 571.518 521.843 573.856C521.358 576.195 519.651 578.09 517.376 578.817C513.931 579.918 510.24 578.049 509.088 574.62C507.937 571.192 509.75 567.473 513.161 566.27Z"/><path fill="#098B5B" d="M130.242 421.646C138.788 421.407 148.833 422.061 157.481 422.374L197.747 423.627L339.921 428.326L379.682 429.716C398.518 430.392 431.24 433.39 445.606 419.078C453.941 410.773 459.494 396.12 472.194 392.039C484.665 388.61 498.904 390.379 511.779 390.2C523.068 390.044 535.793 389.313 546.85 391.201C557.695 393.052 566.05 404.673 565.746 415.597C565.015 441.884 531.7 446.192 511.597 445.627C497.871 445.266 485.776 441.537 474.334 434.725C472.577 436.104 470.81 437.481 469.028 438.827C439.258 461.319 398.93 458.611 363.503 458.535L286.279 458.493L174.151 458.974C154.587 459.065 135.447 459.714 115.894 458.972C116.629 457.289 117.347 454.795 117.947 452.993C121.522 442.265 125.5 431.921 130.242 421.646Z"/><path fill="#FAEDC3" d="M528.229 400.254C530.626 399.399 533.297 399.902 535.219 401.57C537.141 403.237 538.016 405.811 537.507 408.305C536.999 410.798 535.186 412.824 532.764 413.606C529.098 414.79 525.16 412.812 523.921 409.164C522.681 405.516 524.6 401.548 528.229 400.254Z"/><path fill="#F4F3E0" d="M492.489 400.771C496.007 399.871 499.589 401.993 500.491 405.511C501.392 409.029 499.272 412.612 495.754 413.514C492.235 414.417 488.649 412.296 487.748 408.776C486.846 405.256 488.969 401.672 492.489 400.771Z"/><path fill="#EC3F14" d="M767.906 385.779C770.202 385.584 770.981 385.38 773.167 385.903C775.338 389.885 774.031 452.338 774.015 461.793C782.644 452.472 788.908 443.179 796.205 432.815L818.556 400.897C825.892 407.502 832.972 414.584 839.975 421.549L792.79 476.384C793.827 478.389 795.043 480.452 796.158 482.428C818.872 474.373 841.189 465.79 863.487 456.661C866.145 467.245 868.918 477.3 871.897 487.788C849.968 493.312 824.087 499 802.021 503.51L802.027 512.024L871.848 528.319C868.571 537.558 866.033 548.882 863.669 558.547C853.225 554.228 842.93 550.317 832.365 546.316C820.191 541.819 808.234 537.555 795.965 533.325C794.729 535.796 793.885 537.921 792.868 540.467C797.364 546.186 802.797 551.841 807.631 557.324C818.211 569.327 829.219 580.908 840.237 592.508C832.993 600.252 825.361 607.398 817.572 614.584C805.049 595.889 788.282 575.005 774.463 556.906L774.476 629.45L743.86 629.548L743.7 544.868C785.912 534.355 781.708 478.069 744.004 470.782L743.968 386.006C752.029 386.026 759.851 386.023 767.906 385.779Z"/><path fill="#FACB4F" d="M648.066 569.923C649.908 569.935 653.506 570.088 654.273 571.682C657.116 577.59 656.133 596.852 656.133 603.27C662.579 596.214 672.387 583.851 681.756 580.651C684.342 579.767 687.099 583.805 686.466 585.053C681.783 594.283 671.157 601.867 664.089 609.492C673.491 609.655 682.356 609.984 691.87 610.021C704.091 624.2 671.496 620.716 665.038 619.968C671.878 628.578 681.267 636.226 686.731 644.284C686.038 645.591 684.181 649.654 682.499 649.301C673.048 647.314 661.938 633.709 655.944 627.135C656.033 633.961 656.883 652.638 654.469 657.863C647.819 660.848 645.682 655.605 645.203 649.835C644.616 642.752 644.915 635.215 644.962 628.078C641.567 631.857 627.326 648.385 622.496 648.7C609.503 649.546 621.229 636.585 625.221 632.971C629.549 629.051 634.41 624.533 638.784 620.573C632.342 620.6 610.442 621.275 608.357 618.871C597.505 606.36 634.795 610.427 638.199 610.543C633.095 603.5 618.347 592.183 616.455 586.651C616.576 583.352 618.092 582.511 620.474 580.233C630.113 584.713 638.611 594.601 645.96 602.357C645.591 593.771 643.817 576.874 648.066 569.923Z"/><path fill="#098B5B" d="M643.118 362.933C650.043 363.821 650.899 367.978 650.804 374.321C650.697 381.415 650.502 388.474 650.501 395.57C653.813 391.976 670.359 373.441 673.138 373.154C693.877 371.014 661.081 399.575 657.92 402.484C664.814 402.147 685.907 400.657 688.93 403.83C700.081 415.532 660.069 412.104 657.971 412.08C662.918 416.94 680.657 432.37 680.266 436.287C678.54 453.568 652.445 421.737 650.449 419.548C650.543 426.301 651.458 445.209 649.565 450.614C640.661 454.056 640.152 446.909 640.256 440.196C640.359 433.585 640.444 426.935 640.515 420.323C634.757 426.271 625.155 437.907 617.432 440.492C616.092 440.941 614.422 441.155 613.175 440.341C612.128 439.657 611.372 438.542 611.16 437.308C610.429 433.053 628.852 417.024 632.455 412.777L633.096 412.015C626.609 411.921 607.896 412.885 602.496 411.122C589.372 398.684 628.44 401.728 632.876 401.997C628.909 398.525 601.217 376.053 615.994 372.949C620.058 372.096 636.666 391.154 640.478 395.293C640.482 386.366 639.133 374.786 641.012 365.971C641.191 365.128 642.51 363.618 643.118 362.933Z"/><path fill="#06647F" d="M708.809 480.759C718.72 478.853 728.891 482.422 735.437 490.104C741.983 497.786 743.894 508.394 740.44 517.877C736.986 527.361 728.701 534.255 718.748 535.928C703.607 538.472 689.238 528.364 686.516 513.255C683.794 498.146 693.733 483.658 708.809 480.759Z"/><path fill="#FAEDC3" d="M711.211 488.23C722.206 486.625 732.432 494.204 734.096 505.19C735.76 516.176 728.237 526.443 717.26 528.167C706.199 529.903 695.836 522.31 694.159 511.239C692.483 500.169 700.132 489.847 711.211 488.23Z"/><path fill="#06647F" d="M613.31 480.562C621.99 480.676 635.384 479.857 641.286 486.805C650.677 497.861 643.362 508.964 632.546 514.193C637.506 522.04 641.815 528.837 645.904 537.193L638.049 537.245C634.59 531.677 630.706 525.7 627.414 520.083C625.862 521 623.096 521.225 621.374 520.753L620.774 519.591C620.399 525.418 620.522 531.354 620.548 537.2L613.194 537.226C612.956 518.245 613.035 499.543 613.31 480.562Z"/><path fill="#F4F3E0" d="M620.774 519.591C620.799 517.129 620.421 516.516 621.548 514.561C624.26 514.095 626.221 517.936 627.414 520.083C625.862 521 623.096 521.225 621.374 520.753L620.774 519.591Z"/><path fill="#FAEDC3" d="M620.559 487.974C626.85 487.915 636.76 489.169 637.847 497.596C638.045 499.123 635.966 503.471 634.903 504.642C630.934 507.441 626.14 508.907 621.526 506.919C620.35 505.274 620.773 505.389 620.788 502.865C620.636 497.821 620.511 493.032 620.559 487.974Z"/><path fill="#F4F3E0" d="M620.788 502.865L621.329 502.199C623.049 502.564 622.502 502.555 623.767 503.199C627.464 505.082 630.333 503.405 634.903 504.642C630.934 507.441 626.14 508.907 621.526 506.919C620.35 505.274 620.773 505.389 620.788 502.865Z"/><path fill="#06647F" d="M529.296 480.118C539.8 478.921 545.793 482.749 553.393 489.043C551.758 490.788 550.043 492.531 548.382 494.258C541.478 489.723 534.568 485.992 526.015 488.74C514.287 492.752 509.495 504.408 513.424 515.957C517.164 526.95 529.561 532.088 540.275 528.34C545.435 526.535 548.182 520.638 550.031 515.784C542.844 515.577 539.04 516.22 531.513 515.182L531.514 507.085C540.45 506.992 549.108 507.016 558.043 507.158C557.957 513.843 557.108 521.314 553.337 526.657C539.557 546.25 508.189 536.978 504.712 513.773C502.057 496.05 511.714 483.163 529.296 480.118Z"/><path fill="#06647F" d="M582.397 479.875C584.074 481.582 602.046 530.303 604.631 537.028L596.699 537.104L591.563 525.498L584.625 525.499L573.299 525.487C571.837 529.096 570.407 533.372 569.068 537.076L560.944 537.041C566.942 519.151 575.49 497.69 582.397 479.875Z"/><path fill="#F4F3E0" d="M582.562 501.323C585.132 504.361 587.912 513.627 589.082 517.439L582.375 517.502L576.191 517.71C578.267 512.018 580.216 506.906 582.562 501.323Z"/><path fill="#06647F" d="M372.248 480.38C375.202 484.011 391.076 529.411 393.983 537.387L386.423 537.43C384.486 533.148 383.086 529.25 381.487 524.85L370.375 525.001L362.352 525.084C360.64 529.19 359.199 533.316 357.702 537.501L349.412 537.495C350.424 534.605 351.653 531.418 352.9 528.615C359.815 513.075 364.522 495.441 372.248 480.38Z"/><path fill="#F4F3E0" d="M372.03 500.777C374.617 504.189 377.462 513.339 378.974 517.734L373.125 517.664C370.616 517.536 367.781 517.525 365.245 517.465C367.196 512.132 369.542 505.82 372.03 500.777Z"/><path fill="#06647F" d="M478.658 480.798C481.534 483.767 498.157 530.528 500.589 537.402L493.05 537.44C491.403 533.132 490.11 529.684 488.008 525.548L479.601 525.566L469.418 525.535L465.122 537.06L456.91 537.074C464.608 518.297 471.291 499.664 478.658 480.798Z"/><path fill="#F4F3E0" d="M479.052 501.831C480.83 504.591 483.877 513.919 485.086 517.406L478.552 517.954L471.65 518.12L479.052 501.831Z"/><path fill="#06647F" d="M276.839 481.23C287.771 480.88 298.591 480.933 309.524 480.947L309.371 488.502L284.991 488.495L284.875 501.414L305.515 501.511L305.386 508.975L284.984 508.992L284.986 515.524L284.992 529.043C292.383 529.481 301.021 529.415 308.511 529.531L308.451 536.975L277.393 536.989C276.816 518.73 276.787 499.55 276.839 481.23Z"/><path fill="#06647F" d="M261.871 481.011L269.818 481.037L263.951 496.392C259.837 507.596 252.692 528.375 247.339 537.923C240.43 521.379 231.329 498.082 225.503 481.16L233.242 480.976C238.424 493.048 242.33 505.488 247.411 517.271C252.245 506.716 258.156 491.762 261.871 481.011Z"/><path fill="#06647F" d="M650.437 481.018L683.447 481.015L683.403 488.5L670.416 488.491L670.49 524.293L670.501 536.962L662.508 537.104L662.514 488.517L650.524 488.419L650.437 481.018Z"/><path fill="#06647F" d="M425.556 481.1L432.993 481.111L432.911 529.497L453.615 529.511C453.495 531.809 453.103 534.567 452.837 536.89L425.295 536.994C425.787 518.507 425.184 499.673 425.556 481.1Z"/><path fill="#06647F" d="M335.435 481.018L343.008 481.006C343.076 491.582 344.747 518.49 341.608 526.76C340.067 530.822 337.19 534.601 333.09 536.305C328.7 538.131 324.548 537.231 320.336 535.534C317.522 533.162 316.385 531.929 313.931 529.173L320.416 525.46C322.768 528.696 327.882 532.752 331.463 528.879C336.712 523.2 335.557 513.21 335.533 505.956L335.435 481.018Z"/></svg>